<svg aria-hidden="true" style="position:absolute;width:0;height:0;overflow:hidden" xmlns="http://www.w3.org/2000/svg">
  <defs>
    <symbol id="icon-group6" viewBox="0 0 67 32">
<path d="M33.724 15.223c-0.271-0.35-0.435-0.795-0.435-1.278 0-0.048 0.002-0.095 0.005-0.142l-0 0.006v-2.051c0-0.628 0.142-1.106 0.428-1.433 0.284-0.327 0.774-0.489 1.468-0.488 0.652 0 1.116 0.139 1.389 0.417 0.299 0.355 0.444 0.789 0.411 1.226v0.482h-1.166v-0.489c0.004-0.159-0.007-0.319-0.034-0.477-0.020-0.116-0.081-0.214-0.166-0.283l-0.001-0.001c-0.105-0.070-0.234-0.112-0.373-0.112-0.018 0-0.035 0.001-0.052 0.002l0.002-0c-0.015-0.001-0.033-0.002-0.050-0.002-0.147 0-0.283 0.044-0.397 0.12l0.003-0.002c-0.096 0.077-0.166 0.185-0.193 0.309l-0.001 0.004c-0.030 0.14-0.047 0.302-0.047 0.467 0 0.014 0 0.028 0 0.042l-0-0.002v2.488c-0.019 0.24 0.033 0.48 0.149 0.698 0.061 0.075 0.139 0.133 0.23 0.168l0.004 0.001c0.068 0.027 0.148 0.043 0.231 0.043 0.025 0 0.050-0.001 0.074-0.004l-0.003 0c0.015 0.001 0.032 0.002 0.049 0.002 0.136 0 0.262-0.043 0.365-0.116l-0.002 0.001c0.090-0.075 0.153-0.18 0.174-0.299l0-0.003c0.027-0.165 0.040-0.332 0.036-0.498v-0.505h1.167v0.461c0.003 0.036 0.004 0.079 0.004 0.122 0 0.443-0.153 0.85-0.41 1.171l0.003-0.004c-0.268 0.304-0.725 0.457-1.397 0.457s-1.179-0.163-1.466-0.501zM38.583 15.245c-0.295-0.32-0.442-0.784-0.442-1.399v-2.157c0-0.609 0.147-1.070 0.442-1.383s0.787-0.469 1.478-0.467c0.686 0 1.176 0.156 1.471 0.467 0.294 0.313 0.444 0.774 0.444 1.383v2.156c0 0.609-0.149 1.077-0.449 1.398s-0.787 0.481-1.466 0.481-1.181-0.163-1.479-0.479zM40.604 14.727c0.106-0.199 0.154-0.419 0.14-0.638v-2.641c0.001-0.021 0.002-0.046 0.002-0.071 0-0.203-0.052-0.394-0.142-0.561l0.003 0.006c-0.062-0.076-0.142-0.135-0.234-0.17l-0.004-0.001c-0.068-0.027-0.146-0.042-0.229-0.042-0.028 0-0.056 0.002-0.083 0.005l0.003-0c-0.024-0.003-0.051-0.005-0.079-0.005-0.083 0-0.161 0.015-0.234 0.043l0.004-0.002c-0.096 0.036-0.177 0.096-0.239 0.171l-0.001 0.001c-0.107 0.195-0.154 0.41-0.14 0.626v2.652c-0.014 0.22 0.033 0.439 0.14 0.639 0.068 0.067 0.152 0.121 0.246 0.158 0.089 0.036 0.192 0.056 0.3 0.056s0.211-0.021 0.305-0.058l-0.006 0.002c0.095-0.037 0.178-0.091 0.246-0.158v-0.013zM43.381 9.902h1.256l0.944 3.979 0.967-3.979h1.222l0.124 5.743h-0.904l-0.097-3.991-0.932 3.991h-0.725l-0.966-4.006-0.090 4.006h-0.913l0.114-5.743zM49.301 9.902h1.957c1.127 0 1.691 0.543 1.691 1.631 0 1.041-0.594 1.562-1.781 1.56h-0.666v2.552h-1.208l0.007-5.744zM50.973 12.356c0.119 0.014 0.24 0.004 0.356-0.028 0.114-0.031 0.22-0.083 0.309-0.154 0.139-0.194 0.2-0.422 0.174-0.649 0.001-0.019 0.001-0.041 0.001-0.063 0-0.163-0.022-0.321-0.062-0.471l0.003 0.013c-0.019-0.061-0.050-0.114-0.089-0.158l0 0c-0.042-0.047-0.093-0.086-0.149-0.114l-0.003-0.001c-0.141-0.059-0.304-0.094-0.476-0.094-0.022 0-0.044 0.001-0.066 0.002l0.003-0h-0.469v1.717h0.469zM54.692 9.902h1.297l1.331 5.743h-1.126l-0.263-1.324h-1.157l-0.27 1.324h-1.143l1.331-5.743zM55.8 13.655l-0.452-2.411-0.452 2.411h0.903zM58.394 9.902h0.846l1.618 3.276v-3.276h1.003v5.743h-0.804l-1.628-3.42v3.42h-1.036l0.002-5.743zM64.209 13.454l-1.345-3.545h1.133l0.821 2.278 0.77-2.278h1.109l-1.329 3.546v2.19h-1.159v-2.19zM35.59 18.156v0.3h-0.986v2.334h-0.413v-2.334h-0.991v-0.3h2.389zM38.679 20.79h-0.319c-0.003 0-0.006 0-0.009 0-0.030 0-0.058-0.009-0.081-0.025l0 0c-0.023-0.015-0.041-0.035-0.052-0.060l-0-0.001-0.285-0.626h-1.367l-0.284 0.626c-0.009 0.028-0.024 0.052-0.044 0.071l-0 0c-0.023 0.016-0.052 0.025-0.082 0.025-0.003 0-0.005-0-0.008-0h-0.318l1.208-2.634h0.42l1.223 2.624zM36.679 19.812h1.14l-0.484-1.072c-0.031-0.067-0.061-0.15-0.086-0.235l-0.003-0.014c-0.017 0.050-0.031 0.098-0.045 0.14l-0.044 0.11-0.478 1.070zM40.762 20.531c0.076 0.004 0.151 0.004 0.228 0 0.065-0.006 0.129-0.016 0.193-0.031 0.059-0.012 0.117-0.028 0.174-0.048 0.053-0.018 0.107-0.042 0.161-0.065v-0.592h-0.483c-0.001 0-0.003 0-0.004 0-0.023 0-0.044-0.008-0.061-0.022l0 0c-0.008-0.006-0.014-0.013-0.018-0.021l-0-0c-0.004-0.007-0.006-0.015-0.006-0.024 0-0.001 0-0.002 0-0.003v0-0.202h0.937v1.010c-0.147 0.091-0.316 0.165-0.496 0.211l-0.013 0.003c-0.1 0.026-0.2 0.043-0.302 0.055-0.117 0.011-0.235 0.016-0.353 0.016-0.005 0-0.010 0-0.015 0-0.212 0-0.416-0.036-0.606-0.102l0.013 0.004c-0.186-0.065-0.347-0.158-0.486-0.277l0.002 0.002c-0.129-0.114-0.234-0.253-0.308-0.409l-0.003-0.008c-0.070-0.156-0.111-0.338-0.111-0.529 0-0.006 0-0.012 0-0.019v0.001c-0-0.005-0-0.010-0-0.016 0-0.193 0.040-0.377 0.112-0.543l-0.003 0.009c0.069-0.156 0.176-0.299 0.311-0.417 0.138-0.119 0.302-0.211 0.484-0.273 0.206-0.068 0.427-0.101 0.647-0.098 0.112 0 0.225 0.007 0.336 0.023 0.098 0.014 0.195 0.036 0.287 0.067 0.085 0.027 0.166 0.063 0.242 0.105 0.074 0.041 0.144 0.087 0.211 0.137l-0.116 0.163c-0.010 0.015-0.023 0.027-0.039 0.035l-0.001 0c-0.016 0.009-0.035 0.014-0.055 0.014h-0c-0.028-0.001-0.053-0.008-0.075-0.021l0.001 0c-0.049-0.023-0.088-0.044-0.126-0.066l0.007 0.004c-0.045-0.025-0.099-0.049-0.154-0.069l-0.008-0.002c-0.062-0.022-0.136-0.042-0.213-0.057l-0.009-0.001c-0.087-0.015-0.188-0.023-0.29-0.023-0.006 0-0.011 0-0.017 0h0.001c-0.004-0-0.010-0-0.015-0-0.162 0-0.317 0.027-0.462 0.076l0.010-0.003c-0.134 0.046-0.256 0.117-0.356 0.208-0.095 0.090-0.171 0.199-0.222 0.321l-0.002 0.006c-0.051 0.13-0.081 0.281-0.081 0.439s0.030 0.309 0.084 0.448l-0.003-0.008c0.053 0.124 0.135 0.237 0.242 0.332 0.099 0.090 0.219 0.161 0.352 0.208 0.154 0.046 0.316 0.063 0.479 0.052zM44.612 20.49h1.319v0.3h-1.722v-2.634h0.412l-0.009 2.334zM47.303 20.79h-0.412v-2.634h0.412v2.634zM48.84 18.169c0.025 0.012 0.046 0.028 0.063 0.047l0 0 1.766 1.985c-0.001-0.014-0.002-0.030-0.002-0.047s0.001-0.033 0.002-0.049l-0 0.002v-1.963h0.36v2.645h-0.208c-0.004 0-0.009 0-0.014 0-0.027 0-0.054-0.006-0.077-0.016l0.001 0c-0.025-0.013-0.047-0.030-0.065-0.050l-0-0-1.764-1.984v2.048h-0.346v-2.634h0.215c0.023 0 0.047 0.004 0.068 0.012zM54.070 18.156v0.289h-1.463v0.87h1.186v0.279h-1.186v0.9h1.463v0.289h-1.889v-2.628h1.889zM10.782 1.889l18.343 4.496v15.757l-18.343-4.494v-15.76zM9.605 0.545v17.868l20.693 5.075v-17.866l-20.693-5.076z"></path>
<path d="M20.696 31.781l-20.696-5.079v-17.865l20.696 5.077v17.867z"></path>
<path d="M9.948 1.686l18.103 4.44-7.698 6.649-18.107-4.442 7.702-6.647zM9.605 0.545l-9.605 8.292 20.696 5.077 9.603-8.294-20.693-5.075zM21.86 30.776l8.439-7.288-8.439-2.069v9.358z"></path>
</symbol>
   <symbol id="icon-group5" viewBox="0 0 42 32">
<path d="M5.189 22.954c0.145 0.164 0.221 0.369 0.217 0.579 0.001 0.013 0.001 0.028 0.001 0.044 0 0.129-0.029 0.252-0.081 0.362l0.002-0.005c-0.062 0.132-0.15 0.242-0.258 0.329l-0.002 0.001c-0.245 0.169-0.549 0.27-0.876 0.27-0.036 0-0.072-0.001-0.107-0.004l0.005 0h-1.721v-3.668h1.685c0.030-0.002 0.065-0.003 0.1-0.003 0.31 0 0.599 0.092 0.84 0.25l-0.006-0.004c0.109 0.084 0.196 0.19 0.252 0.308 0.057 0.12 0.082 0.249 0.075 0.379 0.009 0.201-0.059 0.401-0.196 0.561-0.131 0.146-0.312 0.247-0.513 0.287 0.228 0.038 0.434 0.149 0.581 0.314zM3.171 22.401h0.721c0.164 0.011 0.326-0.033 0.458-0.122 0.052-0.043 0.094-0.098 0.122-0.16l0.001-0.003c0.021-0.047 0.034-0.103 0.034-0.161 0-0.012-0.001-0.024-0.002-0.036l0 0.002c0.001-0.009 0.001-0.020 0.001-0.031 0-0.059-0.012-0.116-0.035-0.167l0.001 0.003c-0.028-0.065-0.069-0.119-0.12-0.163l-0.001-0c-0.116-0.079-0.26-0.126-0.414-0.126-0.020 0-0.040 0.001-0.060 0.002l0.003-0h-0.709v0.963zM4.42 23.807c0.056-0.045 0.101-0.101 0.132-0.166l0.001-0.003c0.024-0.052 0.038-0.112 0.038-0.175 0-0.010-0-0.020-0.001-0.030l0 0.001c0.001-0.008 0.001-0.017 0.001-0.027 0-0.066-0.015-0.128-0.041-0.183l0.001 0.003c-0.032-0.068-0.078-0.124-0.134-0.168l-0.001-0.001c-0.124-0.084-0.277-0.134-0.441-0.134-0.017 0-0.034 0.001-0.050 0.002l0.002-0h-0.756v1.009h0.766c0.172 0.009 0.343-0.036 0.484-0.127zM8.634 24.532l-0.937-1.434h-0.353v1.434h-0.807v-3.669h1.527c0.033-0.002 0.071-0.004 0.109-0.004 0.359 0 0.691 0.118 0.958 0.318l-0.004-0.003c0.213 0.199 0.343 0.462 0.363 0.74 0.002 0.023 0.003 0.050 0.003 0.077 0 0.267-0.095 0.513-0.254 0.703l0.001-0.002c-0.189 0.195-0.44 0.329-0.721 0.372l-0.007 0.001 0.999 1.466h-0.877zM7.345 22.597h0.66c0.458 0 0.687-0.185 0.687-0.555 0.001-0.009 0.001-0.019 0.001-0.030 0-0.070-0.014-0.136-0.039-0.196l0.001 0.003c-0.031-0.075-0.075-0.138-0.131-0.19l-0-0c-0.125-0.095-0.284-0.151-0.455-0.151-0.023 0-0.045 0.001-0.067 0.003l0.003-0h-0.667l0.008 1.116zM13.043 23.793h-1.607l-0.284 0.739h-0.846l1.476-3.628h0.914l1.47 3.628h-0.845l-0.278-0.738zM12.828 23.237l-0.587-1.548-0.587 1.548h1.175zM18.561 24.532h-0.8l-1.796-2.495v2.495h-0.799v-3.669h0.799l1.796 2.51v-2.51h0.8v3.669zM23.131 23.653c-0.166 0.277-0.418 0.503-0.725 0.647-0.311 0.146-0.676 0.232-1.061 0.232-0.023 0-0.046-0-0.069-0.001l0.003 0h-1.425v-3.669h1.425c0.020-0.001 0.043-0.001 0.067-0.001 0.384 0 0.748 0.083 1.075 0.233l-0.016-0.007c0.306 0.142 0.559 0.365 0.724 0.64 0.165 0.299 0.251 0.628 0.251 0.963s-0.086 0.664-0.251 0.962zM22.215 23.566c0.217-0.227 0.352-0.536 0.354-0.875v-0c0-0.321-0.126-0.632-0.354-0.875-0.248-0.196-0.566-0.315-0.911-0.315-0.032 0-0.064 0.001-0.096 0.003l0.004-0h-0.556v2.375h0.556c0.027 0.002 0.060 0.003 0.092 0.003 0.345 0 0.663-0.118 0.914-0.317l-0.003 0.002zM13.544 0.455s10.334 3.572 10.115 8.741v8.743s-10.327-3.573-10.111-8.743l-0.004-8.741zM32.865 15.892c1.952-1.23 4.209-1.991 6.566-2.215v-2.738c-2.715 0.959-5.019 2.696-6.566 4.953z"></path>
<path d="M31.693 16.717c1.597-2.945 4.366-5.218 7.738-6.351v-7.886s-14.717 5.089-14.406 12.45v12.448s0.656-0.228 1.688-0.654c0-0.398 0-0.799 0.047-1.203 0.304-3.417 2.078-6.584 4.933-8.804z"></path>
<path d="M30.293 21.341c0.077-0.863 0.249-1.717 0.515-2.549-1.778 1.917-2.854 4.296-3.077 6.802-0.022 0.236-0.034 0.473-0.039 0.717 1.228-0.537 2.157-0.994 3.067-1.482l-0.237 0.116c-0.261-1.186-0.338-2.399-0.229-3.605zM30.879 21.386c-0.029 0.303-0.045 0.655-0.045 1.010 0 0.798 0.083 1.576 0.24 2.327l-0.013-0.073c4.021-2.203 8.539-5.607 8.364-9.72v-0.359c-2.873 0.295-5.56 1.444-7.65 3.273-0.461 1.036-0.779 2.237-0.893 3.498l-0.003 0.044z"></path>
</symbol>
    <symbol id="icon-group4" viewBox="0 0 65 32">
<path d="M10.016 9.983h-0.002c-1.827 0-3.308 1.316-3.308 2.94v0.002c0 1.624 1.481 2.94 3.308 2.94h0.002c1.827 0 3.308-1.317 3.308-2.94v-0.002c0-1.624-1.481-2.941-3.308-2.941zM34.434 9.044c-0.005-2.255-1.016-4.418-2.81-6.012s-4.226-2.493-6.763-2.498c-2.539 0.004-4.972 0.902-6.767 2.497s-2.806 3.757-2.811 6.013v12.437s19.15-1.896 19.152-12.434v-0.002zM0 25.562c0.005 1.57 0.709 3.073 1.957 4.183s2.94 1.735 4.706 1.739c1.765-0.005 3.457-0.63 4.706-1.739s1.952-2.613 1.957-4.181v-8.654s-13.324 1.32-13.324 8.652zM6.662 27.112c-0.345 0-0.682-0.091-0.969-0.261-0.279-0.164-0.499-0.401-0.638-0.686l-0.004-0.009c-0.084-0.173-0.132-0.377-0.132-0.592 0-0.107 0.012-0.212 0.035-0.312l-0.002 0.009c0.067-0.301 0.233-0.578 0.477-0.794 0.243-0.214 0.547-0.364 0.882-0.423l0.011-0.002c0.103-0.019 0.221-0.030 0.341-0.030 0.239 0 0.469 0.043 0.68 0.122l-0.013-0.004c0.319 0.117 0.592 0.316 0.783 0.571s0.294 0.555 0.294 0.861c0.001 0.204-0.043 0.407-0.131 0.596-0.094 0.198-0.221 0.366-0.376 0.503l-0.002 0.001c-0.162 0.145-0.354 0.259-0.567 0.338-0.199 0.075-0.428 0.119-0.668 0.119-0 0-0.001 0-0.001 0h0v-0.006zM20.128 26.258h-1.286v1.328h-0.67v-3.251h2.117v0.542h-1.447v0.84h1.286v0.54zM23.346 26.035c0 0.32-0.056 0.6-0.169 0.841s-0.276 0.427-0.488 0.558c-0.199 0.124-0.44 0.197-0.698 0.197-0.008 0-0.017-0-0.025-0l0.001 0c-0.27 0-0.51-0.065-0.722-0.194-0.213-0.134-0.382-0.322-0.487-0.546l-0.003-0.008c-0.112-0.236-0.177-0.512-0.177-0.804 0-0.009 0-0.019 0-0.028l-0 0.001v-0.16c0-0.32 0.058-0.602 0.172-0.844 0.116-0.244 0.279-0.431 0.489-0.56 0.211-0.131 0.452-0.197 0.723-0.197s0.51 0.066 0.721 0.197c0.211 0.13 0.374 0.316 0.489 0.56 0.116 0.242 0.174 0.523 0.174 0.841v0.145zM22.668 25.887c0-0.341-0.061-0.6-0.183-0.777-0.108-0.161-0.29-0.266-0.496-0.266-0.009 0-0.018 0-0.028 0.001l0.001-0c-0.008-0-0.016-0.001-0.025-0.001-0.205 0-0.387 0.104-0.494 0.262l-0.001 0.002c-0.122 0.174-0.184 0.43-0.185 0.768v0.158c0 0.331 0.061 0.589 0.183 0.772s0.297 0.274 0.527 0.274c0.008 0 0.017 0.001 0.026 0.001 0.204 0 0.384-0.104 0.49-0.261l0.001-0.002c0.12-0.177 0.181-0.434 0.183-0.773v-0.158zM25.518 26.733c0-0.006 0.001-0.012 0.001-0.019 0-0.11-0.052-0.208-0.133-0.27l-0.001-0.001c-0.089-0.069-0.25-0.14-0.482-0.214-0.214-0.067-0.396-0.142-0.57-0.232l0.019 0.009c-0.37-0.2-0.554-0.469-0.554-0.806 0-0.175 0.049-0.332 0.147-0.469 0.1-0.139 0.242-0.246 0.427-0.324 0.186-0.077 0.395-0.116 0.625-0.116 0.232 0 0.439 0.042 0.621 0.127 0.181 0.084 0.322 0.201 0.421 0.355 0.101 0.152 0.152 0.328 0.152 0.522h-0.67c0-0.149-0.046-0.264-0.14-0.346-0.094-0.084-0.226-0.125-0.395-0.125-0.164 0-0.291 0.035-0.382 0.105-0.083 0.060-0.136 0.156-0.136 0.265 0 0.003 0 0.005 0 0.008v-0c0 0.106 0.053 0.194 0.158 0.266 0.107 0.071 0.264 0.138 0.471 0.2 0.381 0.114 0.658 0.257 0.833 0.427s0.261 0.381 0.261 0.634c0 0.281-0.107 0.503-0.32 0.663s-0.498 0.239-0.859 0.239c-0.25 0-0.478-0.046-0.683-0.137-0.193-0.082-0.352-0.211-0.469-0.373l-0.002-0.003c-0.1-0.15-0.16-0.335-0.16-0.533 0-0.007 0-0.014 0-0.022l-0 0.001h0.671c0 0.358 0.214 0.538 0.643 0.538 0.159 0 0.283-0.032 0.373-0.096 0.081-0.058 0.134-0.153 0.134-0.259 0-0.004-0-0.009-0-0.013l0 0.001zM29.092 24.878h-0.995v2.708h-0.67v-2.708h-0.981v-0.542h2.647v0.542zM31.431 26.178h-1.285v0.871h1.509v0.538h-2.178v-3.251h2.174v0.542h-1.505v0.775h1.286v0.524zM33.25 26.396h-0.533v1.19h-0.67v-3.251h1.208c0.384 0 0.68 0.086 0.888 0.257s0.312 0.413 0.312 0.725c0 0.222-0.048 0.408-0.145 0.556-0.108 0.156-0.255 0.278-0.429 0.35l-0.006 0.002 0.702 1.328v0.030h-0.718l-0.61-1.189zM32.717 25.854h0.541c0.168 0 0.297-0.042 0.39-0.126 0.086-0.084 0.139-0.201 0.139-0.33 0-0.009-0-0.017-0.001-0.026l0 0.001c0-0.154-0.043-0.274-0.131-0.362s-0.219-0.132-0.4-0.132h-0.538v0.975zM36.775 26.441v1.145h-0.67v-3.251h1.268c0.244 0 0.459 0.045 0.643 0.134 0.186 0.089 0.329 0.216 0.429 0.382 0.099 0.164 0.149 0.35 0.149 0.56 0 0.318-0.11 0.57-0.328 0.754-0.218 0.183-0.519 0.275-0.904 0.275h-0.587zM36.775 25.899h0.598c0.178 0 0.312-0.042 0.404-0.125 0.094-0.084 0.141-0.203 0.141-0.357 0-0.007 0.001-0.016 0.001-0.024 0-0.14-0.053-0.267-0.141-0.363l0 0c-0.094-0.098-0.223-0.149-0.389-0.152h-0.614v1.021zM41.011 26.178h-1.285v0.871h1.509v0.538h-2.178v-3.251h2.174v0.542h-1.505v0.775h1.286v0.524zM44.119 24.878h-0.996v2.708h-0.67v-2.708h-0.982v-0.542h2.648v0.542zM46.458 26.178h-1.285v0.871h1.509v0.538h-2.179v-3.251h2.174v0.542h-1.504v0.775h1.285v0.524zM48.277 26.396h-0.533v1.19h-0.67v-3.251h1.208c0.384 0 0.68 0.086 0.888 0.257s0.312 0.413 0.312 0.725c0 0.222-0.049 0.408-0.145 0.556-0.108 0.156-0.256 0.278-0.429 0.35l-0.006 0.002 0.703 1.328v0.030h-0.718l-0.61-1.189zM47.744 25.854h0.54c0.168 0 0.298-0.042 0.39-0.126 0.086-0.084 0.139-0.201 0.139-0.331 0-0.009-0-0.017-0.001-0.025l0 0.001c0-0.154-0.043-0.274-0.132-0.362-0.086-0.088-0.219-0.132-0.399-0.132h-0.538v0.975zM51.679 26.734c0-0.006 0.001-0.012 0.001-0.019 0-0.11-0.052-0.208-0.134-0.271l-0.001-0.001c-0.089-0.069-0.25-0.14-0.482-0.214-0.214-0.067-0.396-0.142-0.57-0.232l0.019 0.009c-0.37-0.2-0.554-0.469-0.554-0.806 0-0.175 0.050-0.332 0.147-0.469 0.1-0.139 0.242-0.246 0.427-0.324 0.186-0.077 0.395-0.116 0.625-0.116 0.232 0 0.439 0.042 0.621 0.127 0.181 0.084 0.322 0.201 0.421 0.355 0.101 0.152 0.152 0.328 0.152 0.522h-0.67c0-0.149-0.046-0.264-0.14-0.346-0.094-0.084-0.226-0.125-0.395-0.125-0.164 0-0.291 0.035-0.382 0.105-0.083 0.060-0.137 0.156-0.137 0.265 0 0.002 0 0.005 0 0.007v-0c0 0.106 0.053 0.194 0.159 0.266s0.264 0.138 0.471 0.2c0.381 0.114 0.658 0.257 0.833 0.427s0.261 0.381 0.261 0.634c0 0.281-0.107 0.503-0.32 0.663s-0.499 0.239-0.859 0.239c-0.25 0-0.478-0.046-0.683-0.137-0.193-0.082-0.352-0.211-0.469-0.373l-0.002-0.003c-0.1-0.15-0.16-0.335-0.16-0.533 0-0.007 0-0.014 0-0.022l-0 0.001h0.671c0 0.358 0.214 0.538 0.643 0.538 0.159 0 0.283-0.032 0.373-0.096 0.082-0.058 0.134-0.153 0.134-0.26 0-0.004-0-0.009-0-0.013l0 0.001z"></path>
</symbol>
   <symbol id="icon-group3" viewBox="0 0 32 32">
      <path d="M5.266 30.294a.1.1 0 0 1 .061.024l.155.148c-.121.12-.269.216-.437.282a1.673 1.673 0 0 1-.578.101l-.042-.001h.002a1.607 1.607 0 0 1-.581-.095 1.275 1.275 0 0 1-.439-.267l.001.001a1.196 1.196 0 0 1-.281-.403l-.003-.008a1.337 1.337 0 0 1-.099-.511v-.017.001-.027c0-.362.157-.688.407-.912l.001-.001c.132-.116.291-.207.465-.268.191-.064.395-.096.599-.094h.037c.186 0 .364.031.53.089l-.011-.003c.154.058.295.139.417.238l-.13.158a.112.112 0 0 1-.033.028h-.001a.087.087 0 0 1-.045.012h-.007a.127.127 0 0 1-.058-.017h.001l-.069-.043-.097-.054a1.074 1.074 0 0 0-.3-.093l-.006-.001a1.298 1.298 0 0 0-.214-.017h-.018.001-.014c-.149 0-.292.026-.425.074l.009-.003a.998.998 0 0 0-.339.2l.001-.001a.905.905 0 0 0-.219.316c-.05.119-.079.258-.079.403v.015-.001.017c0 .147.029.287.082.414l-.003-.007a.894.894 0 0 0 .537.511c.127.046.262.068.399.068.079.001.159-.004.237-.014a.928.928 0 0 0 .513-.219l-.001.001a.123.123 0 0 1 .073-.027zm4.479-.745v.016c0 .184-.039.358-.108.517l.003-.008a1.154 1.154 0 0 1-.29.406l-.001.001a1.342 1.342 0 0 1-.449.264l-.009.003a1.91 1.91 0 0 1-1.192-.004l.013.004a1.373 1.373 0 0 1-.456-.269l.001.001a1.193 1.193 0 0 1-.292-.403l-.003-.008a1.354 1.354 0 0 1 .003-1.057l-.003.009a1.2 1.2 0 0 1 .295-.412c.129-.113.284-.201.455-.258a1.851 1.851 0 0 1 1.193.004l-.013-.004c.172.06.328.151.457.267a1.2 1.2 0 0 1 .293.406c.072.169.107.348.105.528zm-.407 0v-.022a1.1 1.1 0 0 0-.077-.407l.003.008a.87.87 0 0 0-.529-.512l-.006-.002a1.35 1.35 0 0 0-.866.003l.01-.003a.911.911 0 0 0-.328.2.848.848 0 0 0-.208.309l-.002.006a1.228 1.228 0 0 0 .003.851l-.003-.009a.864.864 0 0 0 .532.51l.006.002c.276.09.58.09.857 0a.912.912 0 0 0 .327-.197.888.888 0 0 0 .208-.315c.052-.135.077-.278.074-.421zm3.463.442.041.094c.016-.033.029-.064.045-.094a.713.713 0 0 1 .053-.096l-.002.004.991-1.565c.02-.027.037-.044.057-.049s.044-.009.068-.009h.014-.001.293v2.546h-.347v-1.951l-.001-.044.002-.046v.002l-.998 1.587a.144.144 0 0 1-.058.057h-.001a.177.177 0 0 1-.084.021H12.813a.17.17 0 0 1-.084-.022h.001a.136.136 0 0 1-.057-.057v-.001l-1.026-1.597v2.043h-.335v-2.54h.306c.024 0 .048.003.07.009h-.002a.113.113 0 0 1 .054.049l1.012 1.567a.528.528 0 0 1 .049.088l.001.003zm3.728-.126v.953h-.387v-2.541h.865a1.86 1.86 0 0 1 .483.055.954.954 0 0 1 .341.159.666.666 0 0 1 .192.245l.002.004a.77.77 0 0 1 .066.326v.016c0 .23-.11.434-.279.563l-.002.001a.998.998 0 0 1-.343.168 1.585 1.585 0 0 1-.436.059h-.032l-.468-.007zm0-.274h.469a1.13 1.13 0 0 0 .301-.038.642.642 0 0 0 .218-.111l-.002.001a.487.487 0 0 0 .178-.377v-.006l.001-.027a.425.425 0 0 0-.04-.182l.001.003a.5.5 0 0 0-.134-.173l-.001-.001a.827.827 0 0 0-.461-.139l-.064.002h.003-.469v1.047zm5.212 1.23h-.312a.145.145 0 0 1-.08-.024h.001a.158.158 0 0 1-.051-.058v-.001l-.263-.614h-1.325l-.273.614a.147.147 0 0 1-.131.083h-.311l1.163-2.546h.403l1.179 2.546zm-1.92-.945h1.094l-.461-1.036a1.63 1.63 0 0 1-.087-.239l-.045.133a.899.899 0 0 1-.043.108l-.457 1.034zm3.595-1.588a.162.162 0 0 1 .058.045l1.697 1.919v-1.976h.347v2.546h-.197a.191.191 0 0 1-.076-.016h.001a.208.208 0 0 1-.062-.047l-1.695-1.917.001.044c0 .016 0 .031-.002.046v-.002 1.892h-.347v-2.546h.206a.21.21 0 0 1 .07.012zm4.959 1.521v1.011h-.388v-1.01l-1.072-1.533h.355c.028 0 .054.008.075.022h-.001a.243.243 0 0 1 .053.058l.671.989c.027.043.05.081.07.118s.036.073.049.107l.05-.11a.958.958 0 0 1 .066-.116l.661-.996a.281.281 0 0 1 .049-.054.127.127 0 0 1 .077-.025h.359l-1.074 1.54zm-15.766-5.805c.169.018.339.033.512.047 2.616-1.017 4.829-2.681 6.363-4.784s2.319-4.553 2.259-7.043l-2.884-2.505c.587 2.65.313 5.39-.791 7.913s-2.994 4.729-5.459 6.372z"/>
      <path d="m11.58 23.888.078.014c2.634-1.638 4.641-3.923 5.764-6.562s1.308-5.51.533-8.242L13.848 5.53c1.66 2.933 2.33 6.215 1.927 9.465-.401 3.25-1.856 6.333-4.196 8.892zm13.926-8.723c-.698 2.736-2.392 5.202-4.832 7.035-.666.507-1.418.982-2.209 1.391l-.086.04c1.987-.507 3.812-1.404 5.337-2.621s2.707-2.723 3.456-4.4l-1.665-1.446z"/>
      <path d="m24.853 14.763-2.371-2.06c-.046 2.349-.814 4.644-2.226 6.647s-3.416 3.642-5.803 4.745h.011c.532 0 1.063-.028 1.591-.082 2.231-.791 4.202-2.05 5.737-3.664s2.586-3.533 3.06-5.586zM11.922 4.025l-2.829-2.46c-2.529.849-4.703 2.342-6.24 4.282s-2.362 4.24-2.37 6.595c.009 2.603 1.018 5.129 2.866 7.177 1.847 2.048 4.428 3.504 7.334 4.134 2.594-2.746 4.113-6.14 4.336-9.687s-.863-7.065-3.098-10.041zm19.466 10.359c-.01-3.088-1.427-6.047-3.94-8.23s-5.919-3.414-9.473-3.423h-.026c-1.709 0-3.351.285-4.882.809l.106-.032 17.319 15.047c.564-1.226.894-2.659.896-4.17v-.001z"/>
    </symbol>
    <symbol id="icon-group2" viewBox="0 0 32 32">
      <path d="M14.224 1.806h-.084a9.985 9.985 0 0 0-.388-.014h-.28c-.244 0-.494.006-.741.018l-.028-.001-.029.001h.001a17.353 17.353 0 0 0-6.576 1.696l.104-.045-.266.128v13.626l.623-.212a23.32 23.32 0 0 1 1.731-.513c1.488-.398 3.202-.638 4.967-.661h.014v1.79c-.223.001-.439.007-.655.018h-.052a20.051 20.051 0 0 0-3.971.619l.139-.031a19.399 19.399 0 0 0-4.666 1.83l.1-.051V2.529A17.896 17.896 0 0 1 8.832.608L8.959.58a17.862 17.862 0 0 1 4.51-.582h.267c.314.008.622.022.91.044.829.06 1.597.187 2.339.378l-.09-.02v1.762a13.17 13.17 0 0 0-2.134-.326l-.045-.003-.044-.004c-.152-.013-.304-.026-.446-.026zm3.101 1.801c.391.03.796.044 1.205.044a19.413 19.413 0 0 0 4.881-.639l-.135.03a19.492 19.492 0 0 0 4.665-1.831l-.101.051v17.163a17.972 17.972 0 0 1-4.664 1.921l-.127.028a17.962 17.962 0 0 1-4.511.581h-.115c-1.177 0-2.319-.147-3.409-.425l.095.021V3.276c.265.062.537.118.814.164.455.077.934.133 1.401.167zm8.735.133-.623.209c-.572.193-1.151.365-1.731.518-1.551.415-3.332.657-5.169.663h-.004c-.406 0-.78-.011-1.141-.034l-.497-.033V19.08l.426.037c.395.035.803.052 1.214.052a16.554 16.554 0 0 0 4.189-.553l-.116.026a16.96 16.96 0 0 0 3.285-1.189l-.102.044.266-.128V3.739zM5.377 25.977a.916.916 0 0 0-.661-.281l-.034.001h.002-.014c-.139 0-.272.028-.393.078l.007-.003a.904.904 0 0 0-.51.512l-.002.006a1.001 1.001 0 0 0-.071.386v2.335c-.006.164.026.328.092.479.055.12.135.226.234.313a.824.824 0 0 0 .32.166c.114.031.231.048.349.048a.985.985 0 0 0 .968-.982v-.261h-.611v.222c0 .07-.013.136-.037.198l.001-.004a.392.392 0 0 1-.088.132.426.426 0 0 1-.255.089.308.308 0 0 1-.286-.125l-.001-.001a.548.548 0 0 1-.082-.289l.001-.024v.001-2.177a.74.74 0 0 1 .075-.349.31.31 0 0 1 .262-.143l.038.002h-.002.012c.107 0 .201.052.26.131l.001.001a.493.493 0 0 1 .101.3v.014-.001.202h.604v-.249c0-.143-.027-.28-.077-.405l.003.007a.955.955 0 0 0-.205-.329zm3.625-.026a1.051 1.051 0 0 0-1.058-.191.965.965 0 0 0-.557.511l-.002.006a1.08 1.08 0 0 0-.089.452v2.239c-.004.158.026.314.089.458a.888.888 0 0 0 .236.313.964.964 0 0 0 .322.197 1.049 1.049 0 0 0 1.059-.198l-.001.001a.948.948 0 0 0 .23-.313c.063-.144.093-.301.089-.458v-2.259c0-.156-.033-.305-.092-.439l.003.007a1.016 1.016 0 0 0-.23-.327zm-.284 3.018.002.035a.398.398 0 0 1-.123.289.446.446 0 0 1-.575 0l.001.001a.398.398 0 0 1-.121-.326v.002-2.239l-.001-.034a.4.4 0 0 1 .123-.289.446.446 0 0 1 .575 0l-.001-.001a.398.398 0 0 1 .121.326v-.002 2.24zm5.046 1v-4.24h-.586l-.771 2.244h-.01l-.777-2.244h-.58v4.239h.606V27.39h.011l.593 1.823h.302l.598-1.823h.01v2.578h.606zm3.441-3.942a.834.834 0 0 0-.342-.232 1.31 1.31 0 0 0-.416-.066h-.024.001-.9v4.24h.604v-1.656h.311c.189.009.376-.031.545-.116a.88.88 0 0 0 .329-.32l.002-.004a1 1 0 0 0 .138-.369c.021-.133.033-.287.033-.444v-.04.002a2.426 2.426 0 0 0-.059-.606.906.906 0 0 0-.223-.39zm-.311 1.292a.538.538 0 0 1-.057.224l.001-.003a.342.342 0 0 1-.154.147l-.002.001a.617.617 0 0 1-.254.054l-.033-.001h.002-.276V26.3h.311l.029-.001c.088 0 .172.02.247.055l-.004-.002a.35.35 0 0 1 .141.154l.001.002a.62.62 0 0 1 .053.236v.282c0 .098.006.201 0 .291h-.006zm3.172-1.59h-.495l-.934 4.24h.604l.177-.911h.823l.178.911h.604l-.958-4.24zm-.557 2.752.297-1.537h.011l.295 1.537h-.604zm4.46-.198h-.011l-.912-2.554h-.581v4.24h.604v-2.55h.012l.923 2.549h.568v-4.239h-.604v2.554zm3.691-2.554-.486 1.686h-.012l-.486-1.686h-.639l.83 2.448v1.791h.604v-1.791l.83-2.447h-.64zM3.692 31.166h.291v.817h.198v-.817h.289v-.167h-.778v.168zm2.448-.168-.382.985h.21l.081-.224h.392l.084.224h.215l-.391-.985h-.21zm-.031.595.134-.365.134.365h-.268zm2.45.027h.228v.127a.378.378 0 0 1-.234.083h-.014a.25.25 0 0 1-.195-.094.406.406 0 0 1-.073-.234l.001-.023v.001c0-.219.095-.329.283-.329l.021-.001c.097 0 .178.067.201.157v.001l.194-.038c-.042-.192-.18-.289-.417-.289h-.013a.492.492 0 0 0-.331.127.48.48 0 0 0-.141.38v-.002.023c0 .132.048.254.127.347l-.001-.001c.087.09.209.146.343.146L8.57 32h-.001.016c.155 0 .296-.06.402-.157v-.388h-.426v.166zm2.471-.622h-.199v.985h.689v-.167h-.49v-.817zm2.089 0h-.199v.985h.199v-.985zm2.042.657-.404-.657h-.193v.985h.185v-.643l.396.643h.198v-.985h-.182v.658zm1.846-.106h.49v-.167h-.49v-.215h.527v-.168h-.727v.985h.747v-.167h-.548v-.266zm4.477-.163h-.388v-.388h-.197v.984h.197v-.431h.388v.431h.198v-.985h-.198v.388zm1.858.163h.492v-.167h-.492v-.215h.529v-.168h-.726v.985h.746v-.167h-.548v-.266zm2.518.001c.171-.027.258-.118.258-.274a.23.23 0 0 0-.096-.219h-.001a.555.555 0 0 0-.25-.059l-.04.001h.002-.417v.984h.198v-.412h.055c.039 0 .076.008.109.023l-.002-.001a.201.201 0 0 1 .07.072l.215.313h.236l-.12-.192a.704.704 0 0 0-.215-.235l-.002-.002zm-.199-.137h-.146v-.247h.156a.515.515 0 0 1 .205.024l-.004-.001a.13.13 0 0 1-.009.2.537.537 0 0 1-.164.025l-.039-.001h.002zm2.099.136h.49v-.167h-.49v-.215h.529v-.168h-.729v.985h.747v-.167h-.548v-.266z"/>
    </symbol>
    <symbol id="icon-group1" viewBox="0 0 32 32">
      <path d="m6.128 0 4.771 4.517-8.857-.005v21.915h23.149v-8.379l4.766 4.512V.001H6.127zm18.854 17.517L11.454 4.71h13.528v12.807zm-4.2 5.703H5.706V8.482h1.066v13.74h14.011v.997zM9.266 29.345l-.557 1.147-.557-1.147h-.467l.813 1.529v.891h.422v-.891l.811-1.529h-.465zm.7 2.42.196-.564h.938l.197.564h.439l-.916-2.42h-.378l-.914 2.42h.437zm.665-1.906.351 1.004h-.701l.351-1.004zm2.217.945a.544.544 0 0 0-.091.303v.004c0 .204.072.37.214.497s.336.19.575.19a1 1 0 0 0 .618-.195l.136.161h.468l-.355-.421c.14-.191.209-.435.209-.733h-.351a.973.973 0 0 1-.101.444l-.468-.552.165-.12a.922.922 0 0 0 .249-.249l.002-.003a.53.53 0 0 0 .076-.275v-.013a.495.495 0 0 0-.169-.374h-.001a.61.61 0 0 0-.408-.157h-.025.001c-.195 0-.35.056-.465.166s-.173.259-.173.449c0 .078.018.157.054.241.038.083.104.184.197.302-.179.129-.3.24-.36.334zm1.092.536a.613.613 0 0 1-.382.136h-.02a.395.395 0 0 1-.27-.106.36.36 0 0 1-.108-.259v-.014.001c0-.129.067-.245.2-.346l.052-.037.528.624zm-.433-1.073c-.114-.141-.172-.257-.172-.351 0-.081.024-.148.07-.201a.239.239 0 0 1 .178-.081h.01-.001.009c.067 0 .127.026.173.068a.214.214 0 0 1 .072.161v.009a.3.3 0 0 1-.103.226l-.052.041-.184.127zm3.939 1.315c.166-.145.261-.347.286-.605h-.419c-.022.173-.075.296-.158.37s-.208.112-.372.112c-.18 0-.318-.069-.412-.206s-.14-.337-.14-.599v-.214c.003-.259.052-.453.15-.587a.494.494 0 0 1 .422-.201c.157 0 .276.039.357.116s.133.202.153.376h.419c-.027-.265-.121-.47-.285-.615s-.378-.218-.645-.218a.978.978 0 0 0-.525.142.925.925 0 0 0-.345.396l-.002.006a1.396 1.396 0 0 0-.122.576v.03-.001.226c.003.223.045.418.125.587s.193.298.339.39a.955.955 0 0 0 .511.136c.276 0 .497-.072.663-.216zm2.472-.339c.082-.18.123-.388.123-.625v-.158c0-.216-.047-.421-.131-.605l.004.009a.932.932 0 0 0-.35-.406l-.004-.002c-.152-.095-.326-.143-.524-.143s-.372.048-.525.144a.939.939 0 0 0-.354.414c-.079.175-.125.38-.125.595v.032-.002.136c.001.232.043.436.126.613a.95.95 0 0 0 .356.411.98.98 0 0 0 .525.143.971.971 0 0 0 .526-.143.941.941 0 0 0 .352-.413zm-.45-1.369c.102.143.152.349.152.618v.126c0 .272-.05.48-.151.622a.49.49 0 0 1-.429.213h-.017a.503.503 0 0 1-.413-.216l-.001-.002c-.104-.145-.155-.351-.155-.617v-.14c.002-.26.054-.462.156-.603a.498.498 0 0 1 .409-.215h.018-.001c.187 0 .33.072.431.214z"/>
    </symbol>
    <symbol id="icon-linkedin" viewBox="0 0 32 32">
      <path d="M31.992 32H32V20.262c0-5.741-1.235-10.163-7.947-10.163-3.227 0-5.392 1.77-6.277 3.45h-.093v-2.914h-6.365v21.363h6.627V21.42c0-2.786.528-5.48 3.978-5.48 3.398 0 3.45 3.179 3.45 5.658V32h6.619zM.528 10.635h6.635V32H.528V10.635zM3.843 0A3.843 3.843 0 0 0 0 3.843c0 2.12 1.722 3.878 3.843 3.878 2.12 0 3.842-1.757 3.842-3.878S5.965.002 3.844 0z"/>
    </symbol>
    <symbol id="icon-facebook" viewBox="0 0 32 32">
      <path d="M21.328 5.312h2.923V.224A36.478 36.478 0 0 0 20.144 0h-.157.008c-4.213 0-7.099 2.65-7.099 7.52V12H8.25v5.688h4.646V32h5.699V17.69h4.459l.709-5.688h-5.17V8.08c0-1.643.443-2.768 2.734-2.768z"/>
    </symbol>
    <symbol id="icon-twitter" viewBox="0 0 32 32">
      <path d="M32 6.078c-1.1.493-2.376.857-3.713 1.028l-.068.007a6.556 6.556 0 0 0 2.873-3.579l.013-.046a12.88 12.88 0 0 1-4.076 1.573l-.084.014A6.558 6.558 0 0 0 15.6 9.557v.004c0 .52.043 1.021.152 1.496-5.454-.266-10.28-2.88-13.522-6.861a6.524 6.524 0 0 0-.902 3.313v.001a6.57 6.57 0 0 0 2.914 5.451 6.453 6.453 0 0 1-2.994-.823l.033.017v.072a6.592 6.592 0 0 0 5.213 6.44l.043.008a6.403 6.403 0 0 1-1.662.215h-.061.003c-.419 0-.843-.024-1.242-.112.85 2.598 3.261 4.509 6.13 4.57a13.093 13.093 0 0 1-8.122 2.8H1.57h.001-.062c-.531 0-1.055-.034-1.569-.099l.061.006c2.826 1.846 6.287 2.944 10.004 2.944h.063-.003c12.072 0 18.672-10 18.672-18.669 0-.288-.01-.57-.024-.848a13.203 13.203 0 0 0 3.258-3.355l.03-.047z"/>
    </symbol>
    <symbol id="icon-instagram" viewBox="0 0 32 32">
      <path d="M31.968 9.408c-.074-1.701-.349-2.869-.742-3.882a7.839 7.839 0 0 0-1.85-2.837l-.001-.001A7.906 7.906 0 0 0 26.597.861l-.054-.018C25.524.449 24.362.176 22.661.101 20.949.019 20.405 0 16.059 0c-4.344 0-4.888.019-6.595.094-1.699.074-2.869.349-3.88.742a7.847 7.847 0 0 0-2.839 1.85l-.001.001A7.9 7.9 0 0 0 .919 5.465l-.018.054C.506 6.538.232 7.7.157 9.401c-.082 1.712-.101 2.256-.101 6.602 0 4.344.019 4.888.094 6.595.075 1.701.35 2.869.744 3.882a7.915 7.915 0 0 0 1.849 2.837l.001.001c.8.813 1.77 1.443 2.832 1.843 1.019.395 2.182.67 3.882.744 1.707.075 2.251.094 6.595.094 4.346 0 4.89-.019 6.595-.094 1.701-.074 2.869-.349 3.882-.742a8.237 8.237 0 0 0 4.664-4.628l.019-.055c.394-1.019.669-2.182.744-3.882.075-1.707.093-2.251.093-6.595s-.006-4.888-.08-6.595zm-2.88 13.066c-.07 1.563-.333 2.406-.55 2.97a5.341 5.341 0 0 1-3.004 3.024l-.036.012c-.56.219-1.411.482-2.968.55-1.688.075-2.194.094-6.464.094-4.269 0-4.782-.019-6.464-.094-1.563-.069-2.406-.331-2.97-.55a4.953 4.953 0 0 1-1.836-1.192l-.001-.001a4.978 4.978 0 0 1-1.184-1.803L3.6 25.45c-.218-.563-.48-1.413-.549-2.97-.075-1.688-.094-2.195-.094-6.464 0-4.27.019-4.784.094-6.464.069-1.563.331-2.406.549-2.97a4.897 4.897 0 0 1 1.198-1.837l.002-.002a4.972 4.972 0 0 1 1.806-1.182l.034-.011c.56-.219 1.411-.48 2.968-.55 1.688-.074 2.195-.093 6.464-.093 4.275 0 4.782.019 6.464.093 1.563.069 2.406.331 2.97.55a4.91 4.91 0 0 1 1.837 1.194c.531.52.938 1.144 1.195 1.84.218.56.48 1.411.549 2.968.075 1.688.094 2.194.094 6.464 0 4.269-.019 4.768-.094 6.458z"/>
      <path d="M16.059 7.782a8.223 8.223 0 0 0-8.219 8.221 8.223 8.223 0 0 0 16.442.008v-.009a8.223 8.223 0 0 0-8.221-8.221zm0 13.552a5.333 5.333 0 0 1 .001-10.666h.001a5.334 5.334 0 1 1 0 10.668zM26.525 7.458a1.92 1.92 0 0 1-3.84 0 1.92 1.92 0 0 1 3.84 0z"/>
    </symbol>
       <symbol id="icon-smartphone" viewBox="0 0 32 32">
      <path d="M23 0H9C7.346 0 6 1.346 6 3v26c0 1.654 1.346 3 3 3h14c1.654 0 3-1.346 3-3V3c0-1.654-1.346-3-3-3zM9 2h14a1 1 0 0 1 1 1v21H8V3a1 1 0 0 1 1-1zm14 28H9a1 1 0 0 1-1-1v-3h16v3a1 1 0 0 1-1 1z"/>
      <path d="M10.708 27.478a.889.889 0 0 1 .001 1.319l-.001.001a1.048 1.048 0 0 1-1.417 0l.001.001a.889.889 0 0 1-.001-1.319l.001-.001a1.048 1.048 0 0 1 1.417 0l-.001-.001z"/>
    </symbol>
    <symbol id="icon-send" viewBox="0 0 32 32">
      <path d="M32 0l-32 18 10.227 3.787 15.773-14.787-11.997 16.187 0.009 0.003-0.012-0.003v8.813l5.735-6.691 7.267 2.691 4.999-28z"></path>
    </symbol>
    <symbol id="icon-envelope" viewBox="0 0 32 32">
      <path d="M29 4H3C1.346 4 0 5.346 0 7v18c0 1.654 1.346 3 3 3h26c1.654 0 3-1.346 3-3V7c0-1.654-1.346-3-3-3zm0 2c.136 0 .266.028.384.078L16 17.678 2.616 6.078A.971.971 0 0 1 3 6h26zm0 20H3a1 1 0 0 1-1-1V8.19l13.344 11.566a.997.997 0 0 0 1.313-.001l-.001.001L30 8.19V25a1 1 0 0 1-1 1z"/>
    </symbol>
    <symbol id="icon-close" viewBox="0 0 32 32">
      <path d="M32 3.223l-3.223-3.223-12.777 12.777-12.777-12.777-3.223 3.223 12.777 12.777-12.777 12.777 3.223 3.223 12.777-12.777 12.777 12.777 3.223-3.223-12.777-12.777 12.777-12.777z"></path>
    </symbol>
    <symbol id="icon-email-form" viewBox="0 0 32 32">
      <path d="M26.667 5.333h-21.333c-1.467 0-2.652 1.2-2.652 2.667l-0.014 16c0 1.467 1.2 2.667 2.667 2.667h21.333c1.467 0 2.667-1.2 2.667-2.667v-16c0-1.467-1.2-2.667-2.667-2.667zM26.133 11.001l-9.426 5.892c-0.201 0.126-0.446 0.2-0.708 0.2s-0.506-0.075-0.713-0.204l0.006 0.003-9.426-5.892c-0.336-0.201-0.557-0.562-0.557-0.975 0-0.625 0.507-1.132 1.132-1.132 0.233 0 0.449 0.070 0.629 0.19l-0.004-0.003 8.933 5.586 8.933-5.588c0.176-0.118 0.392-0.188 0.624-0.188 0.625 0 1.132 0.507 1.132 1.132 0 0.413-0.221 0.775-0.552 0.972l-0.005 0.003z"></path>
    </symbol>
    <symbol id="icon-phone-form" viewBox="0 0 32 32">
      <path d="M24.882 19.774l-3.268-0.373c-0.090-0.011-0.194-0.018-0.299-0.018-0.707 0-1.348 0.287-1.811 0.75l-2.368 2.368c-3.669-1.894-6.585-4.81-8.427-8.372l-0.051-0.108 2.382-2.377c0.463-0.463 0.75-1.103 0.75-1.81 0-0.106-0.006-0.21-0.019-0.312l0.001 0.012-0.373-3.243c-0.155-1.287-1.24-2.276-2.557-2.276-0.001 0-0.002 0-0.003 0h-2.226c-1.454 0-2.663 1.209-2.574 2.663 0.683 10.987 9.47 19.76 20.444 20.443 1.452 0.089 2.663-1.12 2.663-2.574v-2.226c0-0.004 0-0.008 0-0.012 0-1.308-0.985-2.386-2.253-2.532l-0.012-0.001z"></path>
    </symbol>
    <symbol id="icon-name-form" viewBox="0 0 32 32">
      <path d="M16 16c2.946 0 5.333-2.388 5.333-5.333s-2.388-5.333-5.333-5.333v0c-2.946 0-5.333 2.388-5.333 5.333s2.388 5.333 5.333 5.333v0zM16 18.667c-3.561 0-10.667 1.787-10.667 5.333v1.333c0 0.732 0.599 1.333 1.333 1.333h18.667c0.732 0 1.333-0.601 1.333-1.333v-1.333c0-3.547-7.108-5.333-10.667-5.333z"></path>
    </symbol>
    <symbol id="icon-check" viewBox="0 0 42 32">
      <path d="M6.262 15.206l-0.221-0.211-0.221 0.208-3.085 2.925 0.243 0.234 11.408 10.88 0.221-0.211 24.256-23.139-0.243-0.23-3.043-2.902-0.221 0.211-20.97 19.987-8.125-7.75z"></path>
    </symbol>
  </defs>
</svg>
